@startuml
class SliderData <<struct>> {
}
interface IGUIState {
    mouseButton : int <<get>>
    clickCount : int <<get>> <<set>>
    isShiftDown : bool <<get>>
    isAltDown : bool <<get>>
    isActionKeyDown : bool <<get>>
    commandName : string <<get>>
    nearestControl : int <<get>> <<set>>
    hotControl : int <<get>> <<set>>
    changed : bool <<get>> <<set>>
    GetControlID(hint:int, focusType:FocusType) : int
    AddControl(controlID:int, distance:float) : void
    Slider(id:int, sliderData:SliderData, newPosition:Vector3) : bool
    UseEvent() : void
    Repaint() : void
    HasCurrentCamera() : bool
    GetHandleSize(position:Vector3) : float
    DistanceToSegment(p1:Vector3, p2:Vector3) : float
    DistanceToCircle(center:Vector3, radius:float) : float
    GUIToWorld(guiPosition:Vector2, planeNormal:Vector3, planePos:Vector3) : Vector3
}
SliderData --> "position" Vector3
SliderData --> "forward" Vector3
SliderData --> "up" Vector3
SliderData --> "right" Vector3
SliderData o-> "zero" SliderData
IGUIState --> "mousePosition" Vector2
IGUIState --> "keyCode" KeyCode
IGUIState --> "eventType" EventType
@enduml
